<?xml version="1.0" encoding="UTF-8" standalone="no"?>
<svg
   xmlns:dc="http://purl.org/dc/elements/1.1/"
   xmlns:cc="http://creativecommons.org/ns#"
   xmlns:rdf="http://www.w3.org/1999/02/22-rdf-syntax-ns#"
   xmlns:svg="http://www.w3.org/2000/svg"
   xmlns="http://www.w3.org/2000/svg"
   xmlns:xlink="http://www.w3.org/1999/xlink"
   width="659.25763"
   height="83.511757"
   viewBox="0 0 174.42859 22.09582"
   version="1.1"
   id="svg8">
  <defs
     id="defs2">
    <style
       id="style875">.cls-1{fill:#253858;}.cls-2{fill:url(#linear-gradient);}.cls-3{fill:url(#linear-gradient-2);}</style>
    <linearGradient
       id="linear-gradient"
       x1="59.68"
       y1="67.650002"
       x2="20.35"
       y2="45.049999"
       gradientUnits="userSpaceOnUse">
      <stop
         offset="0.18"
         stop-color="#0052cc"
         id="stop877" />
      <stop
         offset="1"
         stop-color="#2684ff"
         id="stop879" />
    </linearGradient>
    <linearGradient
       id="linear-gradient-2"
       x1="279.76001"
       y1="-1616.34"
       x2="240.42"
       y2="-1638.95"
       gradientTransform="rotate(180,141.415,-808.355)"
       xlink:href="#linear-gradient" />
    <linearGradient
       xlink:href="#linear-gradient"
       id="linearGradient908"
       x1="12.894697"
       y1="89.698479"
       x2="30.990175"
       y2="89.698479"
       gradientUnits="userSpaceOnUse"
       gradientTransform="matrix(1.3074046,0,0,1.3074046,-3.396378,-27.782768)" />
  </defs>
  <metadata
     id="metadata5">
    <rdf:RDF>
      <cc:Work
         rdf:about="">
        <dc:format>image/svg+xml</dc:format>
        <dc:type
           rdf:resource="http://purl.org/dc/dcmitype/StillImage" />
        <dc:title></dc:title>
      </cc:Work>
    </rdf:RDF>
  </metadata>
  <g
     id="layer1"
     transform="translate(-10.648702,-78.441751)">
    <path
       style="fill:url(#linearGradient908);fill-opacity:1;stroke:#ffffff;stroke-width:0.33605;stroke-miterlimit:4;stroke-dasharray:none;stroke-opacity:1"
       d="m 29.244372,96.276004 v -1.403827 l 0.25218,-0.286488 c 0.488646,-0.555136 0.705249,-1.463559 0.757873,-3.178562 0.01865,-0.607769 0.04442,-1.232449 0.05724,-1.388185 l 0.02331,-0.283154 -0.297705,0.348156 c -0.550394,0.643674 -2.249228,2.338297 -2.970477,2.963116 -3.31964,2.875808 -6.2255,4.182137 -8.937765,4.01795 -1.765093,-0.106816 -2.822297,-0.449812 -3.632767,-1.1785 -0.633285,-0.569384 -0.954355,-1.289434 -1.023778,-2.296022 -0.110004,-1.594995 0.668808,-2.762285 2.062098,-3.090705 0.498165,-0.117422 1.279657,-0.129304 1.62862,-0.02474 0.356635,0.106854 0.762562,0.479119 0.941535,0.863474 0.242546,0.520868 0.191807,0.981556 -0.171133,1.553855 -0.236738,0.373295 -0.662693,0.598303 -1.02219,0.539965 -0.473148,-0.07678 -0.922606,-0.625932 -0.926021,-1.131427 -0.0014,-0.230766 -0.03299,-0.245346 -0.305955,-0.141923 -0.397517,0.150612 -0.634804,0.493705 -0.741816,1.07259 -0.141395,0.764871 0.267902,1.487629 1.063021,1.877122 0.688193,0.33713 1.322059,0.451757 2.518399,0.45545 1.070584,0.0032 1.298857,-0.03269 2.328067,-0.366519 1.782865,-0.578389 4.300822,-2.314155 6.268318,-4.321107 l 0.438646,-0.447444 -1.543676,-0.0012 c -2.447552,-0.0019 -3.87973,-0.262938 -7.556358,-1.376545 -0.589893,-0.178669 -1.767241,-0.496629 -2.616328,-0.706573 l -1.543802,-0.381693 v -0.926723 -0.926721 h 0.218824 c 0.570673,0 3.686965,-0.709457 5.273841,-1.200648 1.781765,-0.551516 3.592152,-0.947538 4.919383,-1.076123 1.28238,-0.124242 2.693001,0.06545 4.895904,0.658291 0.879198,0.236613 1.452735,0.405332 3.575109,1.051691 0.574225,0.17488 0.748546,0.198621 1.495041,0.203619 0.464763,0.0032 1.008217,-0.01901 1.207675,-0.04919 l 0.362647,-0.05486 0.368116,0.829973 c 0.20246,0.456481 0.360555,0.837523 0.351316,0.846758 -0.0093,0.0093 -0.372493,0.133597 -0.807235,0.276356 -1.373562,0.451034 -2.584728,1.129895 -3.284598,1.841011 -0.457655,0.465013 -0.59335,0.715027 -0.59335,1.093248 0,0.485502 0.344158,0.96443 0.985157,1.370941 0.183159,0.116151 0.258499,0.196537 0.201422,0.214898 -0.05014,0.01613 -0.196396,0.0616 -0.324984,0.101025 -0.370472,0.113598 -0.817578,0.429014 -1.00096,0.706125 -0.09886,0.149382 -0.244509,0.561118 -0.351891,0.994753 -0.222743,0.89947 -0.467921,1.532346 -0.777688,2.007421 -0.246092,0.377423 -1.575757,1.755049 -1.69395,1.755049 -0.04697,0 -0.06934,-0.452782 -0.06934,-1.403814 z M 28.20434,88.389285 c 0.925468,-0.201626 2.295472,-0.659225 3.050394,-1.018862 l 0.622216,-0.296416 -0.422512,-0.161146 c -0.702804,-0.26805 -2.794309,-0.973146 -3.344849,-1.127628 -0.284112,-0.07974 -0.550741,-0.158061 -0.592509,-0.174089 -0.0551,-0.02115 -0.06756,0.09227 -0.04541,0.413348 0.07699,1.116041 -0.713427,2.004201 -1.853679,2.082843 -0.868798,0.05991 -1.654111,-0.442276 -1.961245,-1.254186 -0.120647,-0.318937 -0.140411,-0.472498 -0.113509,-0.882041 l 0.03259,-0.495869 -0.562079,0.122451 c -0.857218,0.18674 -1.765324,0.425992 -2.804645,0.738915 -0.51839,0.156082 -1.234414,0.360772 -1.591165,0.454873 -0.356748,0.0941 -0.657935,0.180388 -0.669301,0.191755 -0.01143,0.01143 0.08558,0.04059 0.215422,0.06494 0.129852,0.02437 0.855168,0.229015 1.611827,0.454789 1.858275,0.554481 2.937664,0.799358 4.560839,1.034712 0.107248,0.01556 0.867776,0.02199 1.690049,0.0143 1.280782,-0.01207 1.592859,-0.0353 2.177562,-0.162686 z M 14.29393,84.588309 v -0.948912 h 0.191719 c 0.484685,0 3.584945,-0.713899 4.919122,-1.132731 1.00745,-0.316261 2.381428,-0.686114 3.162485,-0.851288 3.124141,-0.660679 4.588471,-0.483946 10.122217,1.22166 1.281001,0.394828 1.949477,0.456231 3.057071,0.280806 0.367101,-0.05816 0.675696,-0.09747 0.685768,-0.08741 0.01003,0.01003 0.182792,0.395442 0.38383,0.856384 0.279047,0.639809 0.345711,0.850316 0.281788,0.88982 -0.04604,0.02846 -0.318211,0.118565 -0.604794,0.200219 -0.446962,0.127356 -0.673595,0.148587 -1.593597,0.149276 l -1.072531,7.57e-4 -2.177564,-0.660492 c -4.158663,-1.261396 -5.521414,-1.508122 -7.15021,-1.29455 -0.987606,0.129501 -2.626709,0.488584 -3.639347,0.797284 -2.347937,0.715764 -4.983275,1.349953 -6.159694,1.482316 l -0.406263,0.0457 z"
       id="path953" />
    <text
       xml:space="preserve"
       style="font-size:14.1111px;line-height:1.25;font-family:Roboto;-inkscape-font-specification:Roboto;letter-spacing:0px;word-spacing:0px;stroke-width:0.264583"
       x="111.125"
       y="88.351929"
       id="text844"><tspan
         id="tspan842"
         x="111.125"
         y="88.351929"
         style="stroke-width:0.264583" /></text>
    <g
       id="g914"
       transform="translate(2.1166668,0.62587376)"
       style="fill:#000000;stroke:#ffffff;stroke-width:0.13229167;stroke-miterlimit:4;stroke-dasharray:none;stroke-opacity:1;fill-opacity:1">
      <text
         xml:space="preserve"
         style="font-size:7.03819px;line-height:1.25;font-family:Roboto;-inkscape-font-specification:Roboto;letter-spacing:0px;word-spacing:0px;fill:#000000;stroke:#ffffff;stroke-width:0.13229167;stroke-miterlimit:4;stroke-dasharray:none;stroke-opacity:1;fill-opacity:1"
         x="39.095184"
         y="88.067139"
         id="text957"><tspan
           x="39.095184"
           y="88.067139"
           style="font-style:normal;font-variant:normal;font-weight:bold;font-stretch:normal;font-size:9.85351px;font-family:'Open Sans';-inkscape-font-specification:'Open Sans';fill:#000000;stroke:#ffffff;stroke-width:0.13229167;stroke-miterlimit:4;stroke-dasharray:none;stroke-opacity:1;fill-opacity:1"
           id="tspan846">Atlassian Confluence Builder</tspan></text>
      <text
         xml:space="preserve"
         style="font-size:5.64444px;line-height:1.25;font-family:Roboto;-inkscape-font-specification:Roboto;letter-spacing:0px;word-spacing:0px;fill:#000000;stroke:#ffffff;stroke-width:0.13229167;stroke-miterlimit:4;stroke-dasharray:none;stroke-opacity:1;fill-opacity:1"
         x="40.844456"
         y="95.880432"
         id="text957-6"><tspan
           x="40.844456"
           y="95.880432"
           style="font-style:normal;font-variant:normal;font-weight:bold;font-stretch:normal;font-size:5.64444px;font-family:'Open Sans';-inkscape-font-specification:'Open Sans';fill:#000000;stroke:#ffffff;stroke-width:0.13229167;stroke-miterlimit:4;stroke-dasharray:none;stroke-opacity:1;fill-opacity:1"
           id="tspan846-9">Sphinx Documentation Generation / Publisher</tspan></text>
    </g>
  </g>
</svg>
